<?xml version="1.0" standalone="no"?><!DOCTYPE svg PUBLIC "-//W3C//DTD SVG 1.1//EN" "http://www.w3.org/Graphics/SVG/1.1/DTD/svg11.dtd"><svg t="1756048027127" class="icon" viewBox="0 0 1024 1024" version="1.1" xmlns="http://www.w3.org/2000/svg" p-id="52016" xmlns:xlink="http://www.w3.org/1999/xlink" width="200" height="200"><path d="M909.941 413.281c0.186-4.997 0.281-10.017 0.281-15.059C910.222 178.29 731.932 0 512 0S113.778 178.29 113.778 398.222c0 5.042 0.096 10.062 0.281 15.059-34.164 19.632-57.17 56.488-57.17 98.719l0 398.222c0 62.839 50.938 113.778 113.778 113.778l682.667 0c62.839 0 113.778-50.938 113.778-113.778L967.112 512C967.111 469.769 944.105 432.913 909.941 413.281zM568.889 724.331l0 129.002L455.111 853.333 455.111 724.331c-34.008-19.672-56.889-56.439-56.889-98.553C398.222 562.938 449.161 512 512 512s113.778 50.938 113.778 113.778C625.778 667.892 602.897 704.659 568.889 724.331zM227.556 398.222c0-157.093 127.352-284.444 284.444-284.444s284.444 127.352 284.444 284.444L227.556 398.222z" fill="#000000" p-id="52017"></path></svg>