<?xml version="1.0" standalone="no"?><!DOCTYPE svg PUBLIC "-//W3C//DTD SVG 1.1//EN" "http://www.w3.org/Graphics/SVG/1.1/DTD/svg11.dtd"><svg t="1756048550229" class="icon" viewBox="0 0 1024 1024" version="1.1" xmlns="http://www.w3.org/2000/svg" p-id="63650" xmlns:xlink="http://www.w3.org/1999/xlink" width="200" height="200"><path d="M690.00695 237.225521c-19.445132 0-38.905535 0.279969-58.350668-0.066174-31.697601-0.559938-42.672393-11.611085-42.758929-42.667303-0.106897-32.975279-0.595571-65.965829 0.320692-98.920747 0.279969-9.905819-7.101036-25.925146 5.446673-28.796103 14.45659-3.308727 32.99564-7.895131 46.149102 3.547974 48.388855 42.107365 95.744369 85.40078 143.552924 128.154619 5.853901 5.232878 6.551279 10.287595 3.558153 17.765317-5.507757 13.738851-16.752338 19.572391-29.468028 20.346124-22.748768 1.384575-45.634976 0.391957-68.449919 0.391957v0.244336z" fill="#050000" p-id="63651"></path><path d="M791.345612 299.429583c0.208704-16.619989-6.245858-19.714921-20.895882-19.384048-36.446897 0.819546-72.944697 0.855179-109.401774 0.111987-56.304347-1.145328-102.545075-41.430348-114.268148-96.955872-6.938145-32.868382-3.700684-65.914926-3.517431-98.83421 0.091626-15.91243-4.174086-19.521487-19.735282-19.419681-111.107041 0.717739-222.224264-0.061084-333.331305 0.554848-72.140422 0.397047-125.517819 53.13306-125.706162 124.830622-0.519216 200.172873-0.529396 400.345746 0.035632 600.518619 0.193433 71.076539 55.041941 124.07725 126.535889 124.194328 114.502304 0.188343 229.004608 0.050903 343.512002 0.050904h17.383541c-1.379485-11.68235-9.875277-15.657913-15.057251-21.633983-35.108135-40.702428-52.873452-88.526255-54.44637-141.338622-0.626113-21.028231-7.050133-24.535481-25.858972-24.270783-71.23434 1.012979-142.489041 0.117078-213.733562 0.565029-22.18374 0.14762-42.32625-5.446673-49.768339-27.15192-14.105356-41.140198 2.010688-80.987448 52.496766-79.954107 83.92967 1.710357 167.930604 0.310511 251.900997 0.636293 12.466264 0.040723 21.476181-2.036139 30.175587-13.1331 63.028698-80.29007 144.464097-110.465658 244.550533-86.159242 13.662496 3.318907 19.328054 1.740899 19.129531-14.583849a8509.63776 8509.63776 0 0 1 0-208.643213z m-195.250506 213.728471c-117.841573 0.325782-235.693326 0.305421-353.54508 0.010181-35.596809-0.086536-55.438988-20.911153-54.466731-55.46444 0.956986-34.181692 19.180434-51.483787 55.041941-51.590684 59.343285-0.178162 118.686571-0.050903 178.045127-0.050903 58.498287 0 117.001665-0.14762 175.494862 0.050903 36.579246 0.122168 53.112699 16.563995 53.290861 52.176074 0.193433 36.910119-16.64544 54.761972-53.86098 54.868869z" fill="#040000" p-id="63652"></path><path d="M752.205921 543.837586c-116.314468-0.259608-209.554386 92.741063-209.447489 208.923183 0.101807 114.782273 93.173743 208.098546 207.665866 208.225804 116.390823 0.117078 209.528934-92.791967 209.478031-208.963905-0.055994-114.787364-92.9854-207.935655-207.696408-208.185082z m123.720925 245.690771c-21.954674-0.738101-43.955161-0.188343-65.935287-0.188343-20.279949 0-40.595531-0.447951-60.865299 0.147621-14.176621 0.417409-19.55712-5.568841-19.378958-19.567301 0.478493-37.205359 0.646474-74.405627-0.071265-111.590625-0.300331-15.500112 6.464743-21.114766 20.936604-21.394735 15.846256-0.320692 23.145816 6.047334 22.570607 22.590967-0.794094 22.804762 0.565029 45.68588-0.468312 68.4601-0.677016 14.762011 4.912187 18.97173 19.017542 18.523779 27.87984-0.895901 55.815674 0.356324 83.680243-0.488673 16.889777-0.519216 22.397534 7.269018 22.163378 22.799672-0.223975 14.751831-6.490195 21.216573-21.649253 20.707538z" fill="#040000" p-id="63653"></path></svg>